# xmcd
#
# Track frame offsets:
#	150
#	15777
#	31663
#	52931
#	76232
#	96451
#	119772
#	133025
#	147835
#	161035
#	170163
#	187559
#	221448
#	251214
#
# Disc length: 3679 seconds
#
# Revision: 0
# Processed by: cddbd v1.5.2PL0 Copyright (c) Steve Scherf et al.
# Submitted via: audiograbber 1.83.01
#
DISCID=b70e5d0e
DTITLE=Dolly Parton - Pure and Simple:UK Edition Bonus Disc - Live at Glastonbury
DYEAR=2016
DGENRE=Country
TTITLE0=Fire Medley: Baby I'm Burning - Great Balls of Fire - This Girl Is On F
TTITLE0=ire
TTITLE1=Why'd You Come in Here Lookin' Like That
TTITLE2=Jolene
TTITLE3=Blue Smoke
TTITLE4=Coat of Many Colors
TTITLE5=Rocky Top
TTITLE6=Mud Song
TTITLE7=Banks of the Ohio
TTITLE8=Here You Come Again
TTITLE9=Two Doors Down
TTITLE10=Islands in the Stream
TTITLE11=9 to 5
TTITLE12=Lay Your Hands On Me
TTITLE13=I Will Always Love You
EXTD=
EXTT0=
EXTT1=
EXTT2=
EXTT3=
EXTT4=
EXTT5=
EXTT6=
EXTT7=
EXTT8=
EXTT9=
EXTT10=
EXTT11=
EXTT12=
EXTT13=
PLAYORDER=
